:FULLY-SPECIFIED
:FORCE-ALL-JOINTS-BE-3DOF
:DEGREES
476
root 3.66154 16.3251 -7.1495 5.07982 60.1272 -6.18058
lfemur -39.004 -2.41537 -22.1585
ltibia 49.2225 0 0
lfoot -20.2299 0.77764 0
ltoes 16.7852 0 0
rfemur -22.1003 2.51954 9.35853
rtibia 71.4901 0 0
rfoot 25.2333 15.9425 0
rtoes -26.4148 0 0
lowerback 2.19812 0.000599173 1.31122
upperback -0.346424 0.0604784 1.21954
thorax -1.58694 0.0260727 0.512542
lowerneck -8.45025 -6.92356 0.419051
upperneck 3.46356 -9.36628 1.48504
head 2.61392 -4.59899 -0.0505265
lclavicle 3.21939e-15 -1.4333e-14 0
lhumerus -48.8191 -27.2811 108.18
lradius 56.1956 0 0
lwrist 5.11541 0 0
lhand -9.07605 -5.98852 0
lfingers 7.12502 0 0
lthumb 16.8729 23.2941 0
rclavicle 3.21939e-15 -1.4333e-14 0
rhumerus -55.0295 2.5437 -83.7919
rradius 62.5421 0 0
rwrist 14.9625 0 0
rhand -29.0945 -26.3968 0
rfingers 7.12502 0 0
rthumb -2.44294 -776.362 0
477
root 3.7284 16.341 -7.10752 5.36091 61.1355 -5.63991
lfemur -38.3036 -3.32641 -22.4422
ltibia 48.7943 0 0
lfoot -20.3052 0.66072 0
ltoes 16.8988 0 0
rfemur -24.0532 2.3438 9.13449
rtibia 73.482 0 0
rfoot 24.3727 16.5457 0
rtoes -25.5466 0 0
lowerback 2.28222 -0.026124 1.04304
upperback -0.333723 0.0168387 1.11333
thorax -1.62127 0.00565704 0.555395
lowerneck -8.43167 -7.03543 0.323417
upperneck 3.57953 -9.51322 1.57741
head 2.66017 -4.66884 -0.0154352
lclavicle 2.13383e-14 -2.40529e-14 0
lhumerus -48.931 -27.5431 108.407
lradius 56.3398 0 0
lwrist 5.15338 0 0
lhand -8.22792 -5.51879 0
lfingers 7.12502 0 0
lthumb 17.6895 23.6965 0
rclavicle 2.13383e-14 -2.40529e-14 0
rhumerus -54.6057 3.09377 -84.35
rradius 62.5467 0 0
rwrist 15.5381 0 0
rhand -28.8569 -25.9167 0
rfingers 7.12502 0 0
rthumb -2.2135 -775.885 0
478
root 3.7942 16.3561 -7.06367 5.62444 62.1787 -5.19651
lfemur -37.6745 -4.06632 -22.6548
ltibia 48.3877 0 0
lfoot -20.4094 0.330201 0
ltoes 17.051 0 0
rfemur -26.0881 1.95775 9.14037
rtibia 75.0729 0 0
rfoot 23.6487 15.6892 0
rtoes -25.0254 0 0
lowerback 2.33355 -0.0712247 0.887841
upperback -0.339306 -0.0492795 1.01662
thorax -1.65543 -0.026684 0.5459
lowerneck -8.4397 -7.13642 0.239191
upperneck 3.74603 -9.64639 1.62882
head 2.72687 -4.73226 0.00285627
lclavicle 3.16403e-14 -1.43547e-14 0
lhumerus -49.0228 -27.8167 108.673
lradius 56.3942 0 0
lwrist 5.19328 0 0
lhand -7.26165 -4.96917 0
lfingers 7.12502 0 0
lthumb 18.6186 24.1534 0
rclavicle 3.16403e-14 -1.43547e-14 0
rhumerus -54.1152 3.7177 -85.002
rradius 62.7072 0 0
rwrist 16.1443 0 0
rhand -28.4011 -25.645 0
rfingers 7.12502 0 0
rthumb -1.77327 -775.616 0
479
root 3.86592 16.3719 -7.01497 5.88487 63.3348 -4.74188
lfemur -36.9894 -4.8679 -22.8583
ltibia 47.9573 0 0
lfoot -20.5285 -0.056552 0
ltoes 17.2461 0 0
rfemur -28.3007 1.5327 9.21615
rtibia 76.6819 0 0
rfoot 22.8556 14.4154 0
rtoes -24.2333 0 0
lowerback 2.39528 -0.123114 0.740105
upperback -0.340902 -0.1243 0.918726
thorax -1.69126 -0.0635014 0.53148
lowerneck -8.45092 -7.24648 0.144287
upperneck 3.92229 -9.79068 1.67784
head 2.79836 -4.80132 0.0210369
lclavicle 2.97409e-14 -6.12391e-15 0
lhumerus -49.1027 -28.1213 108.972
lradius 56.4291 0 0
lwrist 5.21591 0 0
lhand -6.17293 -4.36239 0
lfingers 7.12502 0 0
lthumb 19.665 24.6499 0
rclavicle 2.97409e-14 -6.12391e-15 0
rhumerus -53.5736 4.43946 -85.7339
rradius 62.9592 0 0
rwrist 16.8088 0 0
rhand -27.8149 -25.3838 0
rfingers 7.12502 0 0
rthumb -1.2071 -775.357 0
480
root 3.94104 16.3881 -6.9631 6.13745 64.5618 -4.28585
lfemur -36.2714 -5.70603 -23.0489
ltibia 47.5183 0 0
lfoot -20.6574 -0.481156 0
ltoes 17.475 0 0
rfemur -30.6115 1.0909 9.35057
rtibia 78.2579 0 0
rfoot 22.0162 12.8164 0
rtoes -23.2021 0 0
lowerback 2.46594 -0.179248 0.600292
upperback -0.338404 -0.20477 0.822528
thorax -1.72784 -0.103059 0.514687
lowerneck -8.46414 -7.36198 0.0420581
upperneck 4.10182 -9.94138 1.72373
head 2.87189 -4.87374 0.0388005
lclavicle 2.03136e-14 1.09195e-16 0
lhumerus -49.1686 -28.445 109.293
lradius 56.4442 0 0
lwrist 5.21757 0 0
lhand -5.00786 -3.72568 0
lfingers 7.12502 0 0
lthumb 20.7843 25.1636 0
rclavicle 2.03136e-14 1.09195e-16 0
rhumerus -53.0014 5.23424 -86.5184
rradius 63.291 0 0
rwrist 17.5068 0 0
rhand -27.1255 -25.1341 0
rfingers 7.12502 0 0
rthumb -0.541305 -775.108 0
481
root 4.01709 16.4039 -6.90979 6.37741 65.8177 -3.83827
lfemur -35.5434 -6.55558 -23.223
ltibia 47.0857 0 0
lfoot -20.7913 -0.925229 0
ltoes 17.7282 0 0
rfemur -32.9407 0.654609 9.5324
rtibia 79.7497 0 0
rfoot 21.153 10.9839 0
rtoes -21.9633 0 0
lowerback 2.5441 -0.23708 0.468867
upperback -0.331703 -0.287235 0.730908
thorax -1.76424 -0.143621 0.498075
lowerneck -8.4782 -7.4793 -0.0641443
upperneck 4.2781 -10.0938 1.76573
head 2.94475 -4.94726 0.0558409
lclavicle 8.03164e-15 3.81431e-15 0
lhumerus -49.2185 -28.7762 109.625
lradius 56.4396 0 0
lwrist 5.19454 0 0
lhand -3.81251 -3.08627 0
lfingers 7.12502 0 0
lthumb 21.9324 25.6723 0
rclavicle 8.03164e-15 3.81431e-15 0
rhumerus -52.419 6.07725 -87.3283
rradius 63.6911 0 0
rwrist 18.2139 0 0
rhand -26.3603 -24.8967 0
rfingers 7.12502 0 0
rthumb 0.197781 -774.871 0
